<svg width="48" height="48" viewBox="0 0 48 48" fill="none" xmlns="http://www.w3.org/2000/svg">
<g clip-path="url(#clip0_3024_16598)" filter="url(#filter0_d_3024_16598)">
<path d="M44 0H4V40H44V0Z" fill="#FEFEFE"/>
<path d="M37.6809 23.4705L38.9968 23.4598L35.9391 16.9311C35.767 16.5628 35.4986 16.279 35.0756 16.2437C35.0257 16.2397 34.9758 16.2433 34.9276 16.2582C34.6624 16.338 34.5431 16.7037 34.4852 16.9439L33.3578 21.6261L29.9933 16.9877C29.8531 16.7942 29.6867 16.5892 29.4955 16.4446C29.3745 16.3535 29.2248 16.275 29.0689 16.2911C28.6633 16.3332 28.5328 16.6243 28.5372 16.9991L28.6062 23.5418L29.9221 23.5314L29.6995 18.5362L33.0486 23.1101C33.2426 23.3751 33.5009 23.5823 33.8438 23.5795C34.146 23.5775 34.2963 23.374 34.3645 23.1001L35.5164 18.4901L37.6808 23.4704L37.6809 23.4705ZM27.2817 17.7455L27.2634 16.5067L23.2492 16.5385C22.2051 16.5463 21.2551 16.8534 20.549 17.65C19.9434 18.3316 19.6986 19.1539 19.7119 20.0555C19.7259 21.0006 20.0238 21.8419 20.6606 22.5464C21.3764 23.339 22.2988 23.6739 23.3544 23.6655L27.875 23.6299L27.8169 19.6946L23.1966 19.7309L23.2135 20.8707L26.5948 20.8439L26.6178 22.4011L23.3362 22.4267C22.6303 22.4324 21.998 22.2245 21.5205 21.6872C21.3846 21.5349 21.2686 21.366 21.1784 21.183C21.0022 20.827 20.9322 20.4413 20.9408 20.0461C20.9538 19.4575 21.1416 18.9309 21.5428 18.4945C22.0021 17.994 22.5968 17.7824 23.2676 17.7773L27.2818 17.7455H27.2817ZM16.5749 17.8358L16.5567 16.597L12.5421 16.6288C11.4983 16.637 10.5483 16.9441 9.84184 17.7407C9.2367 18.4223 8.9911 19.2446 9.00442 20.1462C9.01836 21.0909 9.31703 21.9319 9.95349 22.6371C10.6689 23.4297 11.5916 23.7642 12.6473 23.7558L17.1675 23.7203L17.1094 19.7852L12.4899 19.8216L12.5067 20.9614L15.8873 20.9346L15.9103 22.4911L12.6291 22.517C11.9232 22.5224 11.2909 22.3152 10.813 21.7779C10.6774 21.6252 10.5614 21.4563 10.4709 21.2733C10.2954 20.9177 10.2247 20.5316 10.2333 20.1368C10.2466 19.5481 10.4348 19.0212 10.8357 18.5852C11.2953 18.0847 11.8893 17.8728 12.5604 17.8675L16.575 17.8358L16.5749 17.8358ZM17.8446 23.7117L19.0836 23.7021L18.9785 16.5751L17.7395 16.5847L17.8446 23.7117Z" fill="#E21D00"/>
</g>
<defs>
<filter id="filter0_d_3024_16598" x="0" y="0" width="48" height="48" filterUnits="userSpaceOnUse" color-interpolation-filters="sRGB">
<feFlood flood-opacity="0" result="BackgroundImageFix"/>
<feColorMatrix in="SourceAlpha" type="matrix" values="0 0 0 0 0 0 0 0 0 0 0 0 0 0 0 0 0 0 127 0" result="hardAlpha"/>
<feOffset dy="4"/>
<feGaussianBlur stdDeviation="2"/>
<feComposite in2="hardAlpha" operator="out"/>
<feColorMatrix type="matrix" values="0 0 0 0 0 0 0 0 0 0 0 0 0 0 0 0 0 0 0.25 0"/>
<feBlend mode="normal" in2="BackgroundImageFix" result="effect1_dropShadow_3024_16598"/>
<feBlend mode="normal" in="SourceGraphic" in2="effect1_dropShadow_3024_16598" result="shape"/>
</filter>
<clipPath id="clip0_3024_16598">
<rect width="40" height="40" fill="white" transform="translate(4)"/>
</clipPath>
</defs>
</svg>
